<svg width="98" height="44" viewBox="0 0 98 44" fill="none" xmlns="http://www.w3.org/2000/svg">
<path fill-rule="evenodd" clip-rule="evenodd" d="M4.65031 2.6038L2.12571 5.1706L14.4378 17.6842V29.3371H21.5893V17.6848L33.9018 5.1694L28.8142 0L23.4506 5.4513C20.5006 8.4496 18.0537 10.9027 18.0132 10.9027C17.9726 10.9027 15.5343 8.4579 12.5947 5.4698C9.65501 2.4817 7.23311 0.0368996 7.21241 0.0368996C7.19181 0.0368996 6.03891 1.1919 4.65031 2.6038ZM2.00581 17.2092C1.11031 18.7856 0.285006 21.5919 0.0576064 23.8342C-0.0546936 24.94 0.00470649 27.3535 0.170706 28.4379C1.72411 38.5837 11.1531 45.4801 21.0756 43.7278C27.617 42.5727 32.9959 37.8823 35.0868 31.5103C35.7748 29.4134 35.9978 27.9952 36 25.7027C36.0023 23.2213 35.7243 21.5721 34.9197 19.2956C34.6439 18.5149 33.9343 16.9726 33.851 16.9726C33.8176 16.9726 32.5834 18.1995 31.1085 19.6992C28.6284 22.2206 28.4294 22.4419 28.4638 22.6404C28.4843 22.7585 28.5551 23.1022 28.6211 23.4041C28.8129 24.2817 28.8877 25.4693 28.8137 26.4592C28.7357 27.4995 28.6127 28.1406 28.3014 29.1282C27.3021 32.2991 24.6553 35.0151 21.4945 36.113C20.2873 36.5323 19.6097 36.6358 18.0504 36.6391C16.4654 36.6426 15.8676 36.557 14.6391 36.1508C11.297 35.046 8.57341 32.1951 7.59251 28.7751C7.27401 27.6643 7.18241 26.9547 7.18651 25.6278C7.19031 24.3942 7.22911 24.0784 7.55451 22.6303C7.58071 22.5135 6.98851 21.8717 4.86811 19.7196L2.14811 16.9588L2.00581 17.2092Z" fill="black"/>
<path d="M55.0586 6.16016V20H51.6016V6.16016H46.2695V3.48828H60.4023V6.16016H55.0586Z" fill="black"/>
<path d="M78.0067 11.668C78.0067 13.3867 77.6591 14.8906 76.9637 16.1797C76.2762 17.4609 75.3036 18.457 74.0458 19.168C72.7958 19.8789 71.327 20.2344 69.6395 20.2344C67.913 20.2344 66.4286 19.8906 65.1864 19.2031C63.9442 18.5078 62.9911 17.5195 62.327 16.2383C61.663 14.957 61.3309 13.4336 61.3309 11.668C61.3309 9.90234 61.6591 8.39062 62.3153 7.13281C62.9794 5.875 63.9325 4.91406 65.1747 4.25C66.4247 3.57812 67.9208 3.24219 69.663 3.24219C71.413 3.24219 72.9091 3.58203 74.1512 4.26172C75.3934 4.93359 76.3466 5.89844 77.0106 7.15625C77.6747 8.41406 78.0067 9.91797 78.0067 11.668ZM74.4794 11.668C74.4794 9.88672 74.0575 8.49219 73.2137 7.48438C72.37 6.46875 71.1864 5.96094 69.663 5.96094C68.1161 5.96094 66.9208 6.46484 66.077 7.47266C65.2333 8.47266 64.8114 9.87109 64.8114 11.668C64.8114 12.8711 65.0067 13.9102 65.3973 14.7852C65.788 15.6602 66.3427 16.3359 67.0614 16.8125C67.788 17.2812 68.6473 17.5156 69.6395 17.5156C71.1864 17.5156 72.3778 17.0078 73.2137 15.9922C74.0575 14.9766 74.4794 13.5352 74.4794 11.668Z" fill="black"/>
<path d="M62.3242 31.6211C62.3242 33.3867 61.9805 34.8945 61.293 36.1445C60.6133 37.3945 59.668 38.3516 58.457 39.0156C57.2539 39.6719 55.8633 40 54.2852 40H47.6055V23.4883H53.582C56.3633 23.4883 58.5156 24.1914 60.0391 25.5977C61.5625 26.9961 62.3242 29.0039 62.3242 31.6211ZM58.8438 31.6211C58.8438 29.8477 58.3828 28.4961 57.4609 27.5664C56.5391 26.6289 55.2227 26.1602 53.5117 26.1602H51.0625V37.3281H53.9922C54.9844 37.3281 55.8398 37.0977 56.5586 36.6367C57.2852 36.168 57.8477 35.5078 58.2461 34.6562C58.6445 33.8047 58.8438 32.793 58.8438 31.6211Z" fill="black"/>
<path d="M68.9833 35.7812L67.5184 40H64.0614L70.0848 23.4883H74.163L80.163 40H76.7411L75.2763 35.7812H68.9833ZM72.1239 26.0312C72.0458 26.3438 71.9364 26.7188 71.7958 27.1562C71.6552 27.5938 71.5536 27.9023 71.4911 28.082L69.7567 33.1797H74.5028L72.7216 27.9766C72.6122 27.6562 72.5106 27.332 72.4169 27.0039C72.3231 26.6758 72.2255 26.3516 72.1239 26.0312Z" fill="black"/>
<path d="M88.4627 33.2266V40H85.0173V33.2266L79.1345 23.4883H82.7556L86.7166 30.4727L90.7244 23.4883H94.3455L88.4627 33.2266Z" fill="black"/>
<path d="M97.2194 36.4258V40H93.8327V36.4258H97.2194Z" fill="black"/>
<path d="M55.0586 6.16016V20H51.6016V6.16016H46.2695V3.48828H60.4023V6.16016H55.0586Z" stroke="black"/>
<path d="M78.0067 11.668C78.0067 13.3867 77.6591 14.8906 76.9637 16.1797C76.2762 17.4609 75.3036 18.457 74.0458 19.168C72.7958 19.8789 71.327 20.2344 69.6395 20.2344C67.913 20.2344 66.4286 19.8906 65.1864 19.2031C63.9442 18.5078 62.9911 17.5195 62.327 16.2383C61.663 14.957 61.3309 13.4336 61.3309 11.668C61.3309 9.90234 61.6591 8.39062 62.3153 7.13281C62.9794 5.875 63.9325 4.91406 65.1747 4.25C66.4247 3.57812 67.9208 3.24219 69.663 3.24219C71.413 3.24219 72.9091 3.58203 74.1512 4.26172C75.3934 4.93359 76.3466 5.89844 77.0106 7.15625C77.6747 8.41406 78.0067 9.91797 78.0067 11.668ZM74.4794 11.668C74.4794 9.88672 74.0575 8.49219 73.2137 7.48438C72.37 6.46875 71.1864 5.96094 69.663 5.96094C68.1161 5.96094 66.9208 6.46484 66.077 7.47266C65.2333 8.47266 64.8114 9.87109 64.8114 11.668C64.8114 12.8711 65.0067 13.9102 65.3973 14.7852C65.788 15.6602 66.3427 16.3359 67.0614 16.8125C67.788 17.2812 68.6473 17.5156 69.6395 17.5156C71.1864 17.5156 72.3778 17.0078 73.2137 15.9922C74.0575 14.9766 74.4794 13.5352 74.4794 11.668Z" stroke="black"/>
<path d="M62.3242 31.6211C62.3242 33.3867 61.9805 34.8945 61.293 36.1445C60.6133 37.3945 59.668 38.3516 58.457 39.0156C57.2539 39.6719 55.8633 40 54.2852 40H47.6055V23.4883H53.582C56.3633 23.4883 58.5156 24.1914 60.0391 25.5977C61.5625 26.9961 62.3242 29.0039 62.3242 31.6211ZM58.8438 31.6211C58.8438 29.8477 58.3828 28.4961 57.4609 27.5664C56.5391 26.6289 55.2227 26.1602 53.5117 26.1602H51.0625V37.3281H53.9922C54.9844 37.3281 55.8398 37.0977 56.5586 36.6367C57.2852 36.168 57.8477 35.5078 58.2461 34.6562C58.6445 33.8047 58.8438 32.793 58.8438 31.6211Z" stroke="black"/>
<path d="M68.9833 35.7812L67.5184 40H64.0614L70.0848 23.4883H74.163L80.163 40H76.7411L75.2763 35.7812H68.9833ZM72.1239 26.0312C72.0458 26.3438 71.9364 26.7188 71.7958 27.1562C71.6552 27.5938 71.5536 27.9023 71.4911 28.082L69.7567 33.1797H74.5028L72.7216 27.9766C72.6122 27.6562 72.5106 27.332 72.4169 27.0039C72.3231 26.6758 72.2255 26.3516 72.1239 26.0312Z" stroke="black"/>
<path d="M88.4627 33.2266V40H85.0173V33.2266L79.1345 23.4883H82.7556L86.7166 30.4727L90.7244 23.4883H94.3455L88.4627 33.2266Z" stroke="black"/>
<path d="M97.2194 36.4258V40H93.8327V36.4258H97.2194Z" stroke="black"/>
</svg>
